<svg width="32" height="32" xmlns="http://www.w3.org/2000/svg">

 <g>
  <title>background</title>
  <rect fill="none" id="canvas_background" height="402" width="582" y="-1" x="-1"/>
 </g>
 <g>
  <title>Layer 1</title>
  <path fill="#e5e5e5" id="svg_3" d="m16,32.001l-4.047,-7.46c-5.115,-1.736 -8.536,-6.508 -8.536,-11.935c0,-6.951 5.645,-12.607 12.583,-12.607c6.938,0 12.583,5.655 12.583,12.607c0,5.427 -3.422,10.198 -8.536,11.935l-4.047,7.46zm0,-31.002c-6.387,0 -11.583,5.207 -11.583,11.607c0,5.059 3.229,9.498 8.035,11.047l0.19,0.062l3.358,6.189l3.358,-6.188l0.19,-0.062c4.806,-1.549 8.034,-5.988 8.034,-11.047c0.001,-6.401 -5.196,-11.608 -11.582,-11.608z"/>
  <path fill="#e5e5e5" id="svg_4" d="m18.713,20.064l-1.991,0l-1.993,0c0,0 0.005,-1.185 0,-1.997c-2.728,0.588 -3.488,-1.498 -3.488,-1.498c-0.498,-0.999 -0.997,-1.498 -0.997,-1.498c-0.997,-0.593 0,-0.499 0,-0.499c0.997,0 1.495,0.999 1.495,0.999c0.875,1.488 2.431,1.248 2.99,0.999c0,-0.499 0.218,-1.254 0.498,-1.498c-2.177,-0.246 -3.989,-1.498 -3.989,-3.995s0.5,-2.996 0.999,-3.495c-0.101,-0.246 -0.518,-1.156 0.015,-2.497c0,0 0.979,0 1.976,1.498c0.494,-0.495 1.993,-0.499 2.492,-0.499c0.497,0 1.997,0.004 2.491,0.499c0.997,-1.498 1.978,-1.498 1.978,-1.498c0.533,1.341 0.116,2.251 0.015,2.497c0.498,0.499 0.997,0.999 0.997,3.495s-1.81,3.749 -3.987,3.995c0.281,0.244 0.498,1.103 0.498,1.498l0.001,3.494l0,0z"/>
 </g>
</svg>