<svg width="32" height="32" xmlns="http://www.w3.org/2000/svg">

 <g>
  <title>background</title>
  <rect fill="none" id="canvas_background" height="402" width="582" y="-1" x="-1"/>
 </g>
 <g>
  <title>Layer 1</title>
  <path fill="#e5e5e5" id="svg_4" d="m16,32.001l-4.047,-7.459c-5.114,-1.738 -8.536,-6.509 -8.536,-11.936c0,-6.952 5.645,-12.607 12.583,-12.607s12.583,5.655 12.583,12.607c0,5.427 -3.422,10.197 -8.537,11.936l-4.046,7.459zm0,-31.002c-6.387,0 -11.583,5.207 -11.583,11.607c0,5.059 3.229,9.498 8.034,11.048l0.19,0.062l3.359,6.187l3.357,-6.188l0.19,-0.062c4.806,-1.55 8.035,-5.989 8.035,-11.048c0.001,-6.399 -5.195,-11.606 -11.582,-11.606z"/>
  <path id="svg_6" fill="#e5e5e5" d="m22.839,11.083c0.089,0.477 0.138,0.976 0.138,1.498c0,4.075 -2.723,6.973 -6.834,6.973c-3.933,0 -7.119,-3.192 -7.119,-7.133s3.186,-7.133 7.119,-7.133c1.922,0 3.528,0.709 4.761,1.859l-2.007,2.011l0,-0.005c-0.747,-0.713 -1.695,-1.079 -2.754,-1.079c-2.349,0 -4.258,1.988 -4.258,4.342c0,2.354 1.909,4.347 4.258,4.347c2.131,0 3.582,-1.222 3.88,-2.898l-3.88,0l0,-2.782l6.696,0l0,0z"/>
 </g>
</svg>